<?xml version="1.0" encoding="iso-8859-1"?>
<!-- Generator: Adobe Illustrator 19.0.0, SVG Export Plug-In . SVG Version: 6.00 Build 0)  -->
<svg xmlns="http://www.w3.org/2000/svg" xmlns:xlink="http://www.w3.org/1999/xlink" version="1.1" id="Layer_1" x="0px" y="0px" viewBox="0 0 512 512" style="enable-background:new 0 0 512 512;" xml:space="preserve" width="512px" height="512px">
<path id="_x3C_Group_x3E__5_" d="M467.032,283.062c-0.74-0.424-61.761-35.421-121.074-69.68c0.021-0.794,0.042-1.588,0.042-2.382  h69.271l30-60H481v-30h-54.271l-30,60h-49.068L391,142.771V99.028l38.32-25.547L412.68,48.519L361,82.972v46.258l-32.429,28.606  c-4.395-5.983-9.508-11.408-15.216-16.14C324.073,133.463,331,120.528,331,106c0-22.838-17.106-41.744-39.177-44.61l39.97-40.177  L310.581,0L256,54.787L201.544,0l-21.213,21.213l39.845,40.177C198.106,64.256,181,83.162,181,106  c0,14.528,6.927,27.463,17.645,35.696c-5.276,4.374-10.042,9.339-14.205,14.791L151,128.925V82.972L99.32,48.519L82.68,73.481  L121,99.028v44.047L167.013,181h-51.743l-30-60H31v30h35.729l30,60H166c0,0.764,0.021,1.529,0.041,2.294L44.906,283.098  C17.207,299.161,0,329.011,0,361c0,19.852,7.879,41.481,21.078,57.859C32.893,433.522,54.442,451,90,451  c33.744,0,64.156-18.75,79.541-47.824c15.554,36.535,40.344,68.092,71.459,75.942V512h30v-32.881  c31.117-7.851,55.909-39.414,71.463-75.953C357.87,432.265,388.27,451,422,451c61.396,0,90-53.704,90-90  C512,329.011,494.793,299.161,467.032,283.062z M186.194,358.062l4.729-13.765C210.744,355.255,232.905,361,256,361  c23.095,0,45.257-5.745,65.077-16.704l4.729,13.765c-0.654,2.769-1.361,5.502-2.112,8.2C304.77,382.24,280.892,391,256,391  s-48.77-8.76-67.694-24.739C187.555,363.563,186.848,360.83,186.194,358.062z M256,331c-19.745,0-38.611-5.389-55.137-15.636  l7.867-22.9C223.779,298.071,239.849,301,256,301c16.151,0,32.221-2.929,47.27-8.536l7.867,22.899  C294.611,325.611,275.745,331,256,331z M218.472,264.107l18.563-54.032c12.344-3.231,25.589-3.235,37.927-0.006l18.565,54.038  C281.621,268.684,269.046,271,256,271C242.954,271,230.38,268.684,218.472,264.107z M256.015,177.628  c-22.957,0-39.443,6.548-57.754,17.1C205.373,169.528,228.556,151,256,151c27.451,0,50.639,18.538,57.745,43.748  C296.97,185.029,280.37,177.628,256.015,177.628z M226,121c-8.271,0-15-6.729-15-15s6.729-15,15-15h60c8.271,0,15,6.729,15,15  s-6.729,15-15,15H226z M146.854,380.237C138.607,404.619,115.76,421,90,421c-19.023,0-34.353-7.054-45.563-20.965  C33.792,386.827,30,371.21,30,361c0-21.329,11.478-41.235,29.92-51.929l138.878-80.028L146.854,380.237z M256,451  c-16.566,0-34.364-15.208-48.517-38.996C222.813,417.905,239.228,421,256,421s33.187-3.095,48.517-8.996  C290.364,435.792,272.566,451,256,451z M422,421c-25.76,0-48.607-16.381-56.877-40.831l-51.897-151.056  c64.246,37.168,138.061,79.502,138.819,79.937C470.522,319.765,482,339.671,482,361C482,379.796,466.892,421,422,421z" fill="#d1890e"/>















</svg>
