<?xml version="1.0" encoding="iso-8859-1"?>
<!-- Generator: Adobe Illustrator 19.0.0, SVG Export Plug-In . SVG Version: 6.00 Build 0)  -->
<svg xmlns="http://www.w3.org/2000/svg" xmlns:xlink="http://www.w3.org/1999/xlink" version="1.1" id="Capa_1" x="0px" y="0px" viewBox="0 0 496 496" style="enable-background:new 0 0 496 496;" xml:space="preserve" width="512px" height="512px">
<g>
	<g>
		<g>
			<path d="M424.504,411.608c-6.464-20.704-19.672-38.352-36.808-50.672c13.704-15.52,19.192-28.624,19.728-29.968l0.576-1.432V160     c0-2.68-0.288-5.328-0.416-8H408c8.816,0,16-7.176,16-16v-16c0-8.816-7.184-16-16-16h-10.208C374.496,41.592,315.096,0,248,0     C180.92,0,121.52,41.592,98.208,104H88c-8.824,0-16,7.184-16,16v16c0,8.824,7.176,16,16,16h0.296     C88.16,154.656,88,157.312,88,160v169.536l0.568,1.432c0.536,1.344,6.024,14.448,19.728,29.968     c-17.136,12.32-30.344,29.968-36.808,50.672L45.12,496h405.76L424.504,411.608z M88,136v-16h256v-16H115.296     C137.64,50.936,189.624,16,248,16c58.376,0,110.368,34.928,132.704,88H360v16h48v16H88z M248,400     c-25.312,0-46.376-3.688-64-9.352v-36.096l10.768-1.656C201.056,366.336,217.184,384,248,384     c30.816,0,46.944-17.664,53.232-31.104L312,354.552v36.096C294.376,396.312,273.304,400,248,400z M312,407.456V424     c0,4.416-3.584,8-8,8H192c-4.416,0-8-3.584-8-8v-16.544c18.056,5.248,39.2,8.544,64,8.544     C272.792,416,293.936,412.704,312,407.456z M208,342.832v-6.344c12.44,4.784,25.896,7.512,40,7.512s27.56-2.728,40-7.512v6.344     C286.624,347,278.216,368,248,368C217.792,368,209.4,347.096,208,342.832z M248,328c-52.936,0-96-43.064-96-96v-80h192v80     C344,284.936,300.936,328,248,328z M120,480H66.88l19.88-63.624c5.688-18.184,17.6-33.52,32.992-43.88     c0.08,0.072,0.168,0.152,0.248,0.224V480z M104,326.336V160c0-2.696,0.144-5.344,0.288-8H136v80     c0,41.344,22.576,77.448,56,96.848v8.288l-41.312,6.352c-10,1.536-19.544,4.664-28.4,9.048     C111.192,340.568,105.696,330.024,104,326.336z M153.128,359.304L168,357.016v27.64c-13.432-5.928-24.216-13-32.952-20.184     C140.832,362.136,146.84,360.264,153.128,359.304z M360,480H136v-94.768c9.048,6.144,19.656,11.92,32,16.784V424     c0,13.232,10.768,24,24,24h112c13.232,0,24-10.768,24-24v-21.984c12.344-4.864,22.952-10.632,32-16.784V480z M328,384.656v-27.64     l14.872,2.288c6.288,0.968,12.288,2.832,18.072,5.168C352.216,371.656,341.432,378.728,328,384.656z M345.312,343.496     L304,337.136v-8.288c33.416-19.4,56-55.496,56-96.848v-80h31.584c0.144,2.672,0.416,5.32,0.416,8v166.328     c-1.712,3.712-7.208,14.248-18.288,26.208C364.848,348.16,355.312,345.032,345.312,343.496z M376,372.72     c0.08-0.072,0.168-0.152,0.248-0.224c15.392,10.36,27.304,25.696,32.992,43.88L429.12,480H376V372.72z" fill="#d1890e"/>
			<path d="M216,192c0-13.232-10.768-24-24-24s-24,10.768-24,24s10.768,24,24,24S216,205.232,216,192z M184,192c0-4.416,3.584-8,8-8     s8,3.584,8,8s-3.584,8-8,8S184,196.416,184,192z" fill="#d1890e"/>
			<path d="M328,192c0-13.232-10.768-24-24-24s-24,10.768-24,24s10.768,24,24,24S328,205.232,328,192z M304,200     c-4.416,0-8-3.584-8-8s3.584-8,8-8c4.416,0,8,3.584,8,8S308.416,200,304,200z" fill="#d1890e"/>
			<path d="M248,296c-22.056,0-40-17.944-40-40h-16c0,30.872,25.128,56,56,56s56-25.128,56-56h-16C288,278.056,270.056,296,248,296z     " fill="#d1890e"/>
		</g>
	</g>
</g>
<g>
</g>
<g>
</g>
<g>
</g>
<g>
</g>
<g>
</g>
<g>
</g>
<g>
</g>
<g>
</g>
<g>
</g>
<g>
</g>
<g>
</g>
<g>
</g>
<g>
</g>
<g>
</g>
<g>
</g>
</svg>
