<?xml version="1.0" encoding="iso-8859-1"?>
<!-- Generator: Adobe Illustrator 17.1.0, SVG Export Plug-In . SVG Version: 6.00 Build 0)  -->
<!DOCTYPE svg PUBLIC "-//W3C//DTD SVG 1.1//EN" "http://www.w3.org/Graphics/SVG/1.1/DTD/svg11.dtd">
<svg xmlns="http://www.w3.org/2000/svg" xmlns:xlink="http://www.w3.org/1999/xlink" version="1.1" id="Capa_1" x="0px" y="0px" viewBox="0 0 470 470" style="enable-background:new 0 0 470 470;" xml:space="preserve" width="512px" height="512px">
<g>
	<path d="M129.021,83.026h211.959c4.143,0,7.5-3.357,7.5-7.5s-3.357-7.5-7.5-7.5H129.021c-4.143,0-7.5,3.357-7.5,7.5   S124.878,83.026,129.021,83.026z" fill="#d1890e"/>
	<path d="M316.817,92.188H153.183c-36.05,0-65.378,29.328-65.378,65.378V440.5c0,16.267,13.233,29.5,29.5,29.5h235.391   c16.267,0,29.5-13.233,29.5-29.5V157.566C382.195,121.517,352.867,92.188,316.817,92.188z M367.195,440.5   c0,7.995-6.505,14.5-14.5,14.5H117.305c-7.995,0-14.5-6.505-14.5-14.5V157.566c0-27.778,22.6-50.378,50.378-50.378h163.635   c27.778,0,50.378,22.6,50.378,50.378V440.5z" fill="#d1890e"/>
	<path d="M155.305,425h-30c-4.143,0-7.5,3.357-7.5,7.5s3.357,7.5,7.5,7.5h30c4.143,0,7.5-3.357,7.5-7.5S159.447,425,155.305,425z" fill="#d1890e"/>
	<path d="M344.695,425H185.305c-4.143,0-7.5,3.357-7.5,7.5s3.357,7.5,7.5,7.5h159.391c4.143,0,7.5-3.357,7.5-7.5   S348.838,425,344.695,425z" fill="#d1890e"/>
	<path d="M138.992,58.863h192.016c4.143,0,7.5-3.357,7.5-7.5V29.5c0-16.267-13.233-29.5-29.5-29.5H160.992   c-16.267,0-29.5,13.233-29.5,29.5v21.863C131.492,55.506,134.85,58.863,138.992,58.863z M146.492,29.5   c0-7.995,6.505-14.5,14.5-14.5h148.016c7.995,0,14.5,6.505,14.5,14.5v14.363H146.492V29.5z" fill="#d1890e"/>
	<path d="M138.106,367.395h193.787c4.143,0,7.5-3.357,7.5-7.5v-193c0-4.143-3.357-7.5-7.5-7.5H138.106c-4.143,0-7.5,3.357-7.5,7.5   v193C130.606,364.037,133.964,367.395,138.106,367.395z M145.606,174.395h178.787v178H145.606V174.395z" fill="#d1890e"/>
	<path d="M293.34,252.896l-21.978-18.136c-1.855-18.428-17.454-32.862-36.362-32.862c-18.895,0-34.487,14.413-36.359,32.859   l-22.008,18.161c-4.227,3.521-6.829,8.478-7.328,13.955c-0.499,5.479,1.165,10.823,4.686,15.051   c3.521,4.227,8.478,6.829,13.955,7.328c0.638,0.059,1.273,0.087,1.905,0.087c4.04,0,7.936-1.188,11.297-3.414   c5.516,14.22,18.871,22.043,26.352,25.439v6.03c0,4.143,3.357,7.5,7.5,7.5s7.5-3.357,7.5-7.5v-6.029   c7.485-3.396,20.849-11.219,26.36-25.435c3.359,2.222,7.252,3.409,11.289,3.409c0.632,0,1.268-0.028,1.905-0.087   c5.478-0.499,10.434-3.102,13.955-7.328c3.521-4.228,5.185-9.572,4.686-15.051C300.196,261.395,297.594,256.438,293.34,252.896z    M235.01,298.284c-4.852-2.016-16.194-7.744-20.046-18.418h40.096C251.242,290.565,239.921,296.262,235.01,298.284z M235,216.897   c9.249,0,17.133,5.869,20.182,14.049h-40.357C217.881,222.757,225.759,216.897,235,216.897z M213.607,264.866l-0.111-18.92h43.008   l-0.111,18.92H213.607z M193.395,273.04c-1.146,0.957-2.584,1.415-4.088,1.272c-1.488-0.135-2.835-0.843-3.791-1.991   c-0.957-1.147-1.408-2.6-1.272-4.088c0.135-1.488,0.843-2.835,1.964-3.77l12.338-10.181l0.085,14.521l-5.152,4.168   C193.45,272.995,193.423,273.018,193.395,273.04z M284.484,272.321c-0.956,1.148-2.303,1.856-3.791,1.991   c-1.49,0.142-2.94-0.314-4.088-1.272c-0.028-0.022-0.056-0.045-0.083-0.067l-5.152-4.168l0.085-14.521l12.31,10.159   c1.148,0.956,1.856,2.303,1.991,3.791C285.893,269.722,285.441,271.174,284.484,272.321z" fill="#d1890e"/>
</g>
<g>
</g>
<g>
</g>
<g>
</g>
<g>
</g>
<g>
</g>
<g>
</g>
<g>
</g>
<g>
</g>
<g>
</g>
<g>
</g>
<g>
</g>
<g>
</g>
<g>
</g>
<g>
</g>
<g>
</g>
</svg>
